<?xml version="1.0" encoding="utf-8"?>
<!-- Generator: Adobe Illustrator 16.0.0, SVG Export Plug-In . SVG Version: 6.00 Build 0)  -->
<!DOCTYPE svg PUBLIC "-//W3C//DTD SVG 1.1//EN" "http://www.w3.org/Graphics/SVG/1.1/DTD/svg11.dtd">
<svg version="1.1" id="Layer_1" xmlns="http://www.w3.org/2000/svg" xmlns:xlink="http://www.w3.org/1999/xlink" x="0px" y="0px"
	 width="547.2px" height="77.208px" viewBox="0 0 547.2 77.208" enable-background="new 0 0 547.2 77.208" xml:space="preserve">
<path fill="#0E2A3C" d="M100.566,7.845h22.375c8.657,0.061,15.151,3.772,19.479,11.138c1.549,2.475,2.528,5.07,2.935,7.787
	c0.322,2.717,0.482,4.974,0.482,11.645c0,7.095-0.249,9.606-0.745,12.416c-0.235,1.418-0.584,2.685-1.053,3.803
	c-0.497,1.086-1.095,2.218-1.796,3.395c-1.874,3.109-4.477,5.677-7.81,7.696c-3.306,2.175-7.356,3.261-12.151,3.261h-21.716V7.845z
	 M110.247,59.574h11.595c5.444,0,9.397-1.923,11.855-5.764c1.083-1.423,1.77-3.221,2.064-5.399c0.262-2.149,0.395-3.734,0.395-9.633
	c0-5.746-0.133-7.424-0.395-9.906c-0.35-2.48-1.186-4.49-2.502-6.031c-2.694-3.844-6.5-5.704-11.417-5.583h-11.595V59.574z"/>
<path fill="#5E647E" d="M389.303,7.845h22.375c8.656,0.061,15.15,3.772,19.479,11.138c1.549,2.475,2.527,5.07,2.938,7.787
	c0.32,2.717,0.479,4.974,0.479,11.645c0,7.095-0.248,9.606-0.742,12.416c-0.236,1.418-0.586,2.685-1.055,3.803
	c-0.498,1.086-1.096,2.218-1.797,3.395c-1.873,3.109-4.475,5.677-7.811,7.696c-3.303,2.175-7.355,3.261-12.15,3.261h-21.715V7.845z
	 M398.983,59.574h11.594c5.445,0,9.398-1.923,11.855-5.764c1.086-1.423,1.771-3.221,2.066-5.399
	c0.264-2.149,0.395-3.734,0.395-9.633c0-5.746-0.131-7.424-0.395-9.906c-0.352-2.48-1.188-4.49-2.502-6.031
	c-2.697-3.844-6.502-5.704-11.42-5.583h-11.594V59.574z"/>
<path fill="#0E2A3C" d="M153.462,45.442c0-4.959,0.395-8.77,1.183-11.431c0.818-2.602,2.076-4.793,3.773-6.578
	c1.257-1.561,3.011-2.958,5.262-4.189c2.223-1.17,5.074-1.786,8.553-1.846c3.597,0.062,6.504,0.679,8.728,1.856
	c2.194,1.238,3.889,2.642,5.088,4.212c1.807,1.781,3.089,3.969,3.847,6.565c0.729,2.657,1.094,6.46,1.094,11.411
	c0,4.95-0.367,8.725-1.097,11.32c-0.76,2.596-2.045,4.845-3.857,6.747c-0.585,0.694-1.301,1.372-2.149,2.036
	c-0.76,0.756-1.74,1.404-2.937,1.947c-2.223,1.297-5.13,1.977-8.724,2.039c-3.478-0.062-6.328-0.742-8.549-2.039
	c-2.251-1.177-4.005-2.502-5.262-3.983c-1.694-1.902-2.952-4.151-3.77-6.747C153.855,54.167,153.462,50.392,153.462,45.442
	 M181.852,45.532c0-3.361-0.147-5.814-0.438-7.36c-0.294-1.484-0.895-2.786-1.804-3.909c-0.674-1.059-1.671-1.89-2.988-2.499
	c-1.263-0.634-2.727-0.953-4.396-0.953c-1.554,0-2.989,0.319-4.308,0.953c-1.26,0.609-2.285,1.44-3.077,2.499
	c-0.792,1.123-1.363,2.425-1.714,3.909c-0.352,1.546-0.526,3.969-0.526,7.27c0,3.271,0.174,5.662,0.526,7.178
	c0.351,1.545,0.922,2.907,1.714,4.09c0.792,0.908,1.817,1.711,3.077,2.406c1.319,0.668,2.754,1.001,4.308,1.001
	c1.669,0,3.133-0.333,4.396-1.001c1.317-0.695,2.314-1.498,2.988-2.406c0.909-1.183,1.51-2.545,1.804-4.09
	C181.705,51.104,181.852,48.742,181.852,45.532"/>
<path fill="#0E2A3C" d="M202.201,54.631c3.722,4.02,8.531,6.028,14.425,6.028c2.637,0,4.794-0.528,6.464-1.585
	c1.672-1.055,2.506-2.536,2.506-4.438c0-1.689-0.499-2.867-1.494-3.532c-1.026-0.695-2.388-1.073-4.086-1.133l-8.086-0.724
	c-3.838-0.362-6.958-1.69-9.359-3.983c-2.463-2.235-3.721-5.361-3.781-9.375c0.06-4.831,1.712-8.453,4.961-10.867
	c3.159-2.416,7.169-3.624,12.026-3.624c2.106,0,3.994,0.135,5.662,0.407c1.668,0.301,3.233,0.724,4.697,1.267
	c2.809,1.176,5.324,2.76,7.549,4.752l-5.67,6.833c-1.759-1.312-3.619-2.391-5.582-3.247c-1.935-0.761-4.16-1.142-6.68-1.142
	c-2.872,0-4.88,0.53-6.023,1.587c-1.202,1.058-1.801,2.418-1.801,4.079c-0.06,1.06,0.393,1.982,1.362,2.767
	c0.878,0.876,2.431,1.436,4.658,1.678l7.558,0.588c4.745,0.362,8.174,1.844,10.282,4.443c1.965,2.539,2.945,5.759,2.945,9.658
	c-0.058,4.563-1.857,8.084-5.394,10.563c-3.512,2.536-8.001,3.836-13.471,3.897c-7.43,0-14.113-2.805-20.051-8.417L202.201,54.631z"
	/>
<path fill="#0E2A3C" d="M246.71,54.631c3.724,4.02,8.53,6.028,14.425,6.028c2.639,0,4.792-0.528,6.464-1.585
	c1.671-1.055,2.506-2.536,2.506-4.438c0-1.689-0.497-2.867-1.494-3.532c-1.026-0.695-2.388-1.073-4.087-1.133l-8.085-0.724
	c-3.836-0.362-6.958-1.69-9.359-3.983c-2.462-2.235-3.723-5.361-3.78-9.375c0.057-4.831,1.711-8.453,4.96-10.867
	c3.159-2.416,7.168-3.624,12.026-3.624c2.108,0,3.996,0.135,5.664,0.407c1.664,0.301,3.233,0.724,4.697,1.267
	c2.808,1.176,5.323,2.76,7.548,4.752l-5.67,6.833c-1.758-1.312-3.62-2.391-5.583-3.247c-1.933-0.761-4.16-1.142-6.68-1.142
	c-2.872,0-4.88,0.53-6.023,1.587c-1.2,1.058-1.801,2.418-1.801,4.079c-0.062,1.06,0.394,1.982,1.362,2.767
	c0.878,0.876,2.432,1.436,4.658,1.678l7.558,0.588c4.747,0.362,8.173,1.844,10.284,4.443c1.964,2.539,2.946,5.759,2.946,9.658
	c-0.059,4.563-1.86,8.084-5.397,10.563c-3.513,2.536-8.002,3.836-13.471,3.897c-7.43,0-14.111-2.805-20.049-8.417L246.71,54.631z"/>
<path fill="#0E2A3C" d="M287.729,7.678h9.137v9.414h-9.137V7.678z M287.729,21.986h9.137v47h-9.137V21.986z"/>
<path fill="#0E2A3C" d="M314.125,49.059c0,3.777,1.053,6.647,3.16,8.612c1.959,1.992,4.535,2.989,7.725,2.989
	c3.715,0,7.035-1.526,9.961-4.577l6.627,5.844c-4.646,5.127-10.115,7.663-16.396,7.604c-2.398,0-4.738-0.363-7.018-1.088
	c-1.141-0.393-2.25-0.922-3.33-1.584c-1.141-0.574-2.209-1.283-3.204-2.13c-1.929-1.748-3.489-4.193-4.688-7.333
	c-1.316-3.019-1.973-6.943-1.973-11.772c0-4.649,0.568-8.513,1.709-11.592c1.141-3.14,2.602-5.615,4.383-7.425
	c1.812-1.843,3.846-3.172,6.096-3.986c2.221-0.815,4.412-1.222,6.574-1.222c5.203,0.062,9.602,1.827,13.199,5.298
	c3.652,3.533,5.508,8.395,5.566,14.584v7.779H314.125z M333.379,41.28c-0.119-3.671-1.072-6.445-2.859-8.327
	c-1.756-1.789-4.012-2.685-6.77-2.685c-2.754,0-5.01,0.896-6.768,2.685c-1.73,1.882-2.68,4.656-2.857,8.327H333.379z"/>
<path fill="#0E2A3C" d="M351.18,21.987h9.137v4.98h0.193c3.01-3.713,6.961-5.569,11.846-5.569c3.656,0.062,6.844,1.265,9.564,3.608
	l-6.674,8.167c-1.934-1.573-3.938-2.362-6.014-2.362c-2.344,0-4.348,0.785-6.016,2.358c-1.873,1.543-2.84,4.037-2.9,7.482v28.335
	h-9.137V21.987z"/>
<path fill="#5E647E" d="M468.37,64.822h-0.178c-0.848,1.6-2.16,2.779-3.943,3.531c-1.754,0.783-4.18,1.176-7.277,1.176
	c-5.086-0.061-9.002-1.447-11.746-4.164c-2.896-2.656-4.342-6.052-4.342-10.187c0-3.954,1.258-7.228,3.77-9.824
	c2.514-2.657,6.195-4.014,11.049-4.074h12.668v-4.961c0.059-4.154-3.055-6.17-9.342-6.051c-2.283,0-4.08,0.242-5.395,0.727
	c-1.375,0.579-2.457,1.548-3.244,2.913l-7.195-5.667c3.479-4.684,8.605-6.963,15.383-6.843c5.727-0.062,10.297,1.057,13.717,3.35
	c3.416,2.356,5.156,6.399,5.213,12.135v32.103h-9.137V64.822z M468.37,49.059h-10.984c-5.33,0.122-7.969,2.01-7.906,5.664
	c0,1.602,0.688,2.959,2.064,4.078c1.318,1.238,3.498,1.859,6.545,1.859c3.838,0.061,6.545-0.408,8.129-1.405
	c1.432-0.997,2.152-3.262,2.152-6.796V49.059z"/>
<path fill="#5E647E" d="M488.932,7.678h9.139v14.309h6.668v7.24h-6.668v27.402c-0.059,2.385,1.02,3.547,3.248,3.487h3.42v8.87
	h-4.773c-3.211,0-5.836-1.025-7.881-3.076c-2.104-1.959-3.152-4.794-3.152-8.502V29.227h-4.588v-7.24h4.588V7.678z"/>
<path fill="#5E647E" d="M538.061,64.822h-0.174c-0.848,1.6-2.164,2.779-3.947,3.531c-1.752,0.783-4.176,1.176-7.275,1.176
	c-5.086-0.061-9.002-1.447-11.748-4.164c-2.893-2.656-4.34-6.052-4.34-10.187c0-3.954,1.256-7.228,3.77-9.824
	c2.514-2.657,6.195-4.014,11.047-4.074h12.668v-4.961c0.062-4.154-3.053-6.17-9.342-6.051c-2.277,0-4.078,0.242-5.393,0.727
	c-1.375,0.579-2.455,1.548-3.248,2.913l-7.188-5.667c3.475-4.684,8.602-6.963,15.379-6.843c5.725-0.062,10.297,1.057,13.717,3.35
	c3.416,2.356,5.154,6.399,5.213,12.135v32.103h-9.139V64.822z M538.061,49.059h-10.982c-5.332,0.122-7.967,2.01-7.908,5.664
	c0,1.602,0.689,2.959,2.066,4.078c1.316,1.238,3.5,1.859,6.545,1.859c3.834,0.061,6.543-0.408,8.127-1.405
	c1.436-0.997,2.152-3.262,2.152-6.796V49.059z"/>
<path fill="#0E2A3C" d="M24.762,46.326h2.708h3.062h6.564h6.205c1.565,0,2.835-1.27,2.835-2.835v-4.888v-4.885
	c0-1.566-1.27-2.835-2.835-2.835h-6.205h-6.564H27.47h-2.708h-9.475H0v15.443h15.287H24.762z"/>
<path fill="#0E2A3C" d="M59.133,0H18.076C8.99,0,1.492,6.711,0.214,15.441h25.641c0.09-0.002,0.179-0.013,0.27-0.013h24.617
	c5.985,0,10.837,4.851,10.837,10.837v12.339v12.278c0,5.986-4.852,10.837-10.837,10.837H37.097h-6.565H0.207
	c1.257,8.754,8.767,15.489,17.869,15.489h41.057c9.982,0,18.075-8.093,18.075-18.076V18.075C77.208,8.093,69.115,0,59.133,0"/>
<path fill="#C2D948" d="M24.762,30.883h2.708h3.062V15.442h-4.678H0.214C0.087,16.303,0,17.178,0,18.075v12.808h15.287H24.762z"/>
<path fill="#6DCBD7" d="M30.532,30.883h6.565h6.205c1.565,0,2.834,1.27,2.834,2.835v4.886h15.443V26.265
	c0-5.986-4.852-10.837-10.837-10.837H26.125c-0.091,0-0.179,0.012-0.27,0.014h4.677V30.883z"/>
<path fill="#A565AA" d="M30.532,46.326H27.47h-2.708h-9.474H0.001v12.807c0,0.88,0.084,1.739,0.206,2.586h30.325V46.326z"/>
<path fill="#0091CB" d="M46.136,43.491c0,1.565-1.269,2.835-2.834,2.835h-6.205h-6.565v15.393h6.565h13.645
	c5.985,0,10.837-4.851,10.837-10.837V38.603H46.136V43.491z"/>
</svg>
